<svg width="158" height="50" viewBox="0 0 158 50" fill="none" xmlns="http://www.w3.org/2000/svg">
<rect y="0.520996" width="157.774" height="49.3796" rx="6.0219" fill="black"/>
<path d="M46.1275 14.2595C46.0961 14.7809 46.0373 15.2024 45.9511 15.5239C45.8687 15.8453 45.7296 16.1237 45.5335 16.3589V16.4295H49.6501V9.84892H46.4039L46.1275 14.2595ZM44.575 17.3822V19.0582H43.5929V16.4295H44.2221C44.5162 16.2727 44.7318 16.0159 44.869 15.6591C45.0102 15.2984 45.0984 14.824 45.1337 14.236L45.4571 8.89624H50.7086V16.4295H51.7672V19.0582H50.7851V17.3822H44.575Z" fill="#FBFBFB"/>
<path d="M54.4076 15.9649C54.733 16.3766 55.1956 16.5824 55.7955 16.5824C56.3953 16.5824 56.8579 16.3766 57.1833 15.9649C57.5087 15.5493 57.6714 14.9652 57.6714 14.2124C57.6714 13.4597 57.5087 12.8775 57.1833 12.4659C56.8579 12.0503 56.3953 11.8425 55.7955 11.8425C55.1956 11.8425 54.733 12.0503 54.4076 12.4659C54.0822 12.8775 53.9195 13.4597 53.9195 14.2124C53.9195 14.9652 54.0822 15.5493 54.4076 15.9649ZM57.9302 16.6177C57.4088 17.2018 56.6972 17.4939 55.7955 17.4939C54.8938 17.4939 54.1802 17.2018 53.6549 16.6177C53.1334 16.0296 52.8727 15.2279 52.8727 14.2124C52.8727 13.1931 53.1334 12.3914 53.6549 11.8072C54.1763 11.2231 54.8898 10.931 55.7955 10.931C56.7011 10.931 57.4146 11.2231 57.9361 11.8072C58.4575 12.3914 58.7182 13.1931 58.7182 14.2124C58.7182 15.2279 58.4555 16.0296 57.9302 16.6177Z" fill="#FBFBFB"/>
<path d="M65.6693 12.9834H64.646C64.5598 12.6501 64.3735 12.3776 64.0873 12.1659C63.8051 11.9503 63.4463 11.8425 63.0112 11.8425C62.4427 11.8425 61.9899 12.0542 61.6527 12.4776C61.3195 12.901 61.1528 13.4715 61.1528 14.1889C61.1528 14.9181 61.3214 15.5003 61.6586 15.9355C61.9958 16.3668 62.4466 16.5824 63.0112 16.5824C63.4385 16.5824 63.7933 16.4863 64.0756 16.2942C64.3618 16.1021 64.5519 15.8277 64.646 15.4709H65.6693C65.5752 16.0708 65.2949 16.5589 64.8283 16.9352C64.3618 17.3077 63.758 17.4939 63.017 17.4939C62.1271 17.4939 61.4194 17.196 60.8941 16.6C60.3687 16.0002 60.1061 15.1965 60.1061 14.1889C60.1061 13.201 60.3687 12.411 60.8941 11.819C61.4194 11.227 62.1251 10.931 63.0112 10.931C63.7521 10.931 64.3559 11.125 64.8224 11.5132C65.2929 11.9013 65.5752 12.3914 65.6693 12.9834Z" fill="#FBFBFB"/>
<path d="M71.5735 11.0427V11.8895H69.5153V17.3822H68.5038V11.8895H66.4455V11.0427H71.5735Z" fill="#FBFBFB"/>
<path d="M73.5965 19.6816C73.4358 19.6816 73.2849 19.6698 73.1437 19.6463V18.7818C73.2456 18.8014 73.3868 18.8112 73.5671 18.8112C73.8572 18.8112 74.0905 18.7308 74.2669 18.5701C74.4434 18.4133 74.5982 18.1447 74.7315 17.7644L74.8491 17.3881L72.5027 11.0427H73.5965L75.3372 16.259H75.4313L77.1662 11.0427H78.2423L75.7665 17.7703C75.496 18.5034 75.2059 19.0053 74.8962 19.2758C74.5904 19.5463 74.1572 19.6816 73.5965 19.6816Z" fill="#FBFBFB"/>
<path d="M83.882 17.3822V11.8895H80.7181V17.3822H79.7066V11.0427H84.8935V17.3822H83.882Z" fill="#FBFBFB"/>
<path d="M86.9047 17.3822V11.0427H87.9162V13.6655H91.1388V11.0427H92.1503V17.3822H91.1388V14.5124H87.9162V17.3822H86.9047Z" fill="#FBFBFB"/>
<path d="M95.3847 15.9649C95.7101 16.3766 96.1728 16.5824 96.7726 16.5824C97.3724 16.5824 97.8351 16.3766 98.1605 15.9649C98.4859 15.5493 98.6486 14.9652 98.6486 14.2124C98.6486 13.4597 98.4859 12.8775 98.1605 12.4659C97.8351 12.0503 97.3724 11.8425 96.7726 11.8425C96.1728 11.8425 95.7101 12.0503 95.3847 12.4659C95.0593 12.8775 94.8966 13.4597 94.8966 14.2124C94.8966 14.9652 95.0593 15.5493 95.3847 15.9649ZM98.9073 16.6177C98.3859 17.2018 97.6743 17.4939 96.7726 17.4939C95.8709 17.4939 95.1574 17.2018 94.632 16.6177C94.1106 16.0296 93.8499 15.2279 93.8499 14.2124C93.8499 13.1931 94.1106 12.3914 94.632 11.8072C95.1534 11.2231 95.867 10.931 96.7726 10.931C97.6782 10.931 98.3918 11.2231 98.9132 11.8072C99.4346 12.3914 99.6953 13.1931 99.6953 14.2124C99.6953 15.2279 99.4327 16.0296 98.9073 16.6177Z" fill="#FBFBFB"/>
<path d="M107.381 11.8895H105.805V13.6773H107.217C108.013 13.6773 108.411 13.3754 108.411 12.7717C108.411 12.4972 108.324 12.2816 108.152 12.1248C107.983 11.968 107.726 11.8895 107.381 11.8895ZM107.305 14.5241H105.805V16.5353H107.499C107.887 16.5353 108.181 16.4511 108.381 16.2825C108.585 16.11 108.687 15.863 108.687 15.5415C108.687 15.1926 108.571 14.9358 108.34 14.7711C108.113 14.6065 107.768 14.5241 107.305 14.5241ZM104.794 17.3822V11.0427H107.511C108.103 11.0427 108.567 11.1897 108.905 11.4838C109.242 11.7739 109.41 12.1679 109.41 12.6658C109.41 12.9794 109.31 13.2656 109.11 13.5244C108.914 13.7792 108.669 13.938 108.375 14.0007V14.0948C108.775 14.1497 109.095 14.3124 109.334 14.5829C109.573 14.8495 109.693 15.1749 109.693 15.5591C109.693 16.1159 109.501 16.5589 109.116 16.8882C108.732 17.2175 108.201 17.3822 107.523 17.3822H104.794Z" fill="#FBFBFB"/>
<path d="M54.5046 39.061L53.185 35.232H47.6865L46.3569 39.061H44.0575L49.2661 24.6349H51.6754L56.884 39.061H54.5046ZM50.3558 27.2542L48.2563 33.3526H52.6152L50.5257 27.2542H50.3558Z" fill="#FBFBFB"/>
<path d="M64.3924 27.994C65.7787 27.994 66.8784 28.5005 67.6915 29.5136C68.5046 30.52 68.9111 31.8863 68.9111 33.6125C68.9111 35.3387 68.5046 36.7083 67.6915 37.7214C66.885 38.7344 65.792 39.241 64.4124 39.241C63.6392 39.241 62.9594 39.081 62.3729 38.7611C61.7864 38.4345 61.3499 37.9846 61.0633 37.4115H60.8933V42.5901H58.7439V28.174H60.8133V29.9735H60.9733C61.2999 29.3536 61.7664 28.8704 62.3729 28.5239C62.9794 28.1706 63.6526 27.994 64.3924 27.994ZM63.7825 37.3115C64.6956 37.3115 65.4088 36.9849 65.922 36.3317C66.4418 35.6719 66.7017 34.7655 66.7017 33.6125C66.7017 32.4595 66.4418 31.5564 65.922 30.9032C65.4088 30.2501 64.6989 29.9235 63.7925 29.9235C62.8861 29.9235 62.1696 30.2567 61.6431 30.9232C61.1166 31.583 60.8533 32.4828 60.8533 33.6225C60.8533 34.7555 61.1166 35.6553 61.6431 36.3218C62.1696 36.9816 62.8828 37.3115 63.7825 37.3115Z" fill="#FBFBFB"/>
<path d="M76.7394 27.994C78.1257 27.994 79.2254 28.5005 80.0385 29.5136C80.8516 30.52 81.2582 31.8863 81.2582 33.6125C81.2582 35.3387 80.8516 36.7083 80.0385 37.7214C79.2321 38.7344 78.139 39.241 76.7594 39.241C75.9863 39.241 75.3065 39.081 74.72 38.7611C74.1335 38.4345 73.6969 37.9846 73.4103 37.4115H73.2404V42.5901H71.091V28.174H73.1604V29.9735H73.3203C73.6469 29.3536 74.1135 28.8704 74.72 28.5239C75.3265 28.1706 75.9996 27.994 76.7394 27.994ZM76.1296 37.3115C77.0427 37.3115 77.7558 36.9849 78.269 36.3317C78.7889 35.6719 79.0488 34.7655 79.0488 33.6125C79.0488 32.4595 78.7889 31.5564 78.269 30.9032C77.7558 30.2501 77.046 29.9235 76.1396 29.9235C75.2332 29.9235 74.5167 30.2567 73.9902 30.9232C73.4636 31.583 73.2004 32.4828 73.2004 33.6225C73.2004 34.7555 73.4636 35.6553 73.9902 36.3218C74.5167 36.9816 75.2298 37.3115 76.1296 37.3115Z" fill="#FBFBFB"/>
<path d="M88.1971 35.1821H90.4165C90.5098 35.8685 90.8664 36.4151 91.4862 36.8216C92.1127 37.2215 92.9092 37.4215 93.8756 37.4215C94.7753 37.4215 95.5185 37.2148 96.105 36.8016C96.6981 36.3817 96.9947 35.8519 96.9947 35.2121C96.9947 34.6655 96.7748 34.219 96.3349 33.8724C95.9017 33.5192 95.2052 33.2293 94.2455 33.0026L92.386 32.5528C91.0797 32.2462 90.1199 31.7697 89.5068 31.1232C88.8936 30.4767 88.587 29.6236 88.587 28.5639C88.587 27.2775 89.0669 26.2445 90.0266 25.4647C90.993 24.6782 92.2627 24.285 93.8356 24.285C95.3019 24.285 96.5182 24.6716 97.4846 25.4447C98.451 26.2178 98.9675 27.2109 99.0342 28.4239H96.8548C96.7481 27.7574 96.4216 27.2309 95.875 26.8443C95.3352 26.4578 94.6454 26.2645 93.8056 26.2645C92.9192 26.2645 92.206 26.4611 91.6662 26.8543C91.1263 27.2475 90.8564 27.7674 90.8564 28.4139C90.8564 28.9271 91.0597 29.3436 91.4662 29.6636C91.8795 29.9835 92.5559 30.2534 93.4957 30.4733L95.0852 30.8632C96.5648 31.2098 97.6312 31.703 98.2844 32.3428C98.9375 32.976 99.2641 33.8358 99.2641 34.9221C99.2641 36.3018 98.7643 37.3948 97.7645 38.2012C96.7648 39.0077 95.4118 39.4109 93.7056 39.4109C92.1061 39.4109 90.8064 39.0277 89.8067 38.2612C88.8136 37.4948 88.2771 36.4684 88.1971 35.1821Z" fill="#FBFBFB"/>
<path d="M102.314 25.5347H104.463V28.2239H106.902V30.0335H104.463V35.6319C104.463 36.1985 104.586 36.615 104.833 36.8816C105.08 37.1415 105.47 37.2715 106.003 37.2715C106.203 37.2715 106.469 37.2548 106.802 37.2215V39.011C106.389 39.0843 106.006 39.121 105.653 39.121C104.46 39.121 103.603 38.8944 103.083 38.4412C102.57 37.988 102.314 37.2348 102.314 36.1818V30.0335H100.524V28.2239H102.314V25.5347Z" fill="#FBFBFB"/>
<path d="M113.421 37.3615C114.347 37.3615 115.064 37.0349 115.57 36.3817C116.084 35.7219 116.34 34.7988 116.34 33.6125C116.34 32.4328 116.084 31.5164 115.57 30.8632C115.064 30.2034 114.347 29.8735 113.421 29.8735C112.488 29.8735 111.768 30.2001 111.262 30.8532C110.755 31.5064 110.502 32.4261 110.502 33.6125C110.502 34.8055 110.755 35.7286 111.262 36.3817C111.768 37.0349 112.488 37.3615 113.421 37.3615ZM113.421 39.271C111.822 39.271 110.565 38.7678 109.652 37.7614C108.739 36.755 108.282 35.372 108.282 33.6125C108.282 31.8596 108.739 30.48 109.652 29.4736C110.572 28.4672 111.828 27.964 113.421 27.964C115.007 27.964 116.257 28.4672 117.17 29.4736C118.09 30.48 118.55 31.8596 118.55 33.6125C118.55 35.372 118.093 36.755 117.18 37.7614C116.267 38.7678 115.014 39.271 113.421 39.271Z" fill="#FBFBFB"/>
<path d="M120.729 39.061V28.174H122.799V29.8435H122.959C123.112 29.3037 123.462 28.8604 124.009 28.5139C124.555 28.1673 125.182 27.994 125.888 27.994C126.288 27.994 126.605 28.024 126.838 28.084V30.2034C126.591 30.1168 126.195 30.0734 125.648 30.0734C124.835 30.0734 124.169 30.31 123.649 30.7833C123.136 31.2565 122.879 31.873 122.879 32.6328V39.061H120.729Z" fill="#FBFBFB"/>
<path d="M134.596 30.5633C134.116 30.0501 133.48 29.7935 132.687 29.7935C131.894 29.7935 131.24 30.0501 130.727 30.5633C130.214 31.0765 129.927 31.7597 129.867 32.6128H135.366C135.339 31.753 135.083 31.0698 134.596 30.5633ZM135.356 36.1218H137.425C137.179 37.1015 136.639 37.8713 135.806 38.4312C134.979 38.991 133.946 39.271 132.707 39.271C131.147 39.271 129.917 38.7711 129.018 37.7714C128.125 36.765 127.678 35.392 127.678 33.6525C127.678 31.9129 128.131 30.53 129.038 29.5036C129.944 28.4772 131.164 27.964 132.697 27.964C134.21 27.964 135.396 28.4505 136.256 29.4236C137.122 30.3967 137.555 31.7397 137.555 33.4525V34.2023H129.867V34.3223C129.901 35.282 130.177 36.0418 130.697 36.6017C131.217 37.1615 131.907 37.4414 132.767 37.4414C134.08 37.4414 134.943 37.0016 135.356 36.1218Z" fill="#FBFBFB"/>
<g clip-path="url(#clip0_2_561)">
<path d="M20.0936 39.0613C15.7916 39.0365 12.2332 30.2548 12.2332 25.7825C12.2332 18.4769 17.7136 16.8775 19.8257 16.8775C20.7775 16.8775 21.7939 17.2513 22.6903 17.5821C23.3172 17.8128 23.9655 18.051 24.3261 18.051C24.5419 18.051 25.0505 17.8484 25.4996 17.6706C26.4572 17.2894 27.6489 16.8156 29.0366 16.8156C29.039 16.8156 29.0424 16.8156 29.0448 16.8156C30.081 16.8156 33.2227 17.043 35.1115 19.8795L35.554 20.5444L34.9172 21.0249C34.0076 21.7112 32.3478 22.9633 32.3478 25.4434C32.3478 28.3809 34.2275 29.5105 35.1306 30.0539C35.5292 30.2937 35.9418 30.541 35.9418 31.0818C35.9418 31.4349 33.1235 39.0175 29.0307 39.0175C28.0293 39.0175 27.3214 38.7165 26.697 38.451C26.0652 38.1822 25.5202 37.9507 24.6196 37.9507C24.1631 37.9507 23.5859 38.1666 22.9747 38.3956C22.1396 38.7073 21.1943 39.0613 20.1217 39.0613H20.0936Z" fill="#FBFBFB"/>
<path d="M29.4697 10.1561C29.5762 13.9994 26.8277 16.6656 24.0824 16.4984C23.63 13.4314 26.8274 10.1561 29.4697 10.1561Z" fill="#FBFBFB"/>
</g>
<defs>
<clipPath id="clip0_2_561">
<rect width="28.9051" height="28.9051" fill="white" transform="translate(9.63501 10.1559)"/>
</clipPath>
</defs>
</svg>
