<svg width="158" height="50" viewBox="0 0 158 50" fill="none" xmlns="http://www.w3.org/2000/svg">
<rect x="0.226562" y="0.520996" width="157.774" height="49.3796" rx="6.0219" fill="black"/>
<path d="M43.8616 19.2916H44.77V17.3823H50.3283V19.2762H51.2367V16.5355H50.3283V9.49914H45.6476L45.4782 12.8249C45.3705 15.0882 44.8932 16.0582 44.3697 16.5355H43.8616V19.2916ZM45.509 16.5355C45.9863 15.7811 46.2943 14.5493 46.3867 12.8249L46.5098 10.346H49.4199V16.5355H45.509Z" fill="#FBFBFB"/>
<path d="M59.3306 13.4407C59.3306 10.9464 57.8679 9.39136 55.8509 9.39136C53.834 9.39136 52.3712 10.9464 52.3712 13.4407C52.3712 15.935 53.834 17.4901 55.8509 17.4901C57.8679 17.4901 59.3306 15.935 59.3306 13.4407ZM58.4068 13.4407C58.4068 15.4885 57.2829 16.5971 55.8509 16.5971C54.419 16.5971 53.2951 15.4885 53.2951 13.4407C53.2951 11.393 54.419 10.2844 55.8509 10.2844C57.2829 10.2844 58.4068 11.393 58.4068 13.4407Z" fill="#FBFBFB"/>
<path d="M67.2793 11.9626C66.9867 10.346 65.6934 9.39136 64.1075 9.39136C62.0905 9.39136 60.6278 10.9464 60.6278 13.4407C60.6278 15.935 62.0905 17.4901 64.1075 17.4901C65.6934 17.4901 66.9867 16.5355 67.2793 14.9188H66.3247C66.0937 16.012 65.1545 16.5971 64.1075 16.5971C62.6756 16.5971 61.5516 15.4885 61.5516 13.4407C61.5516 11.393 62.6756 10.2844 64.1075 10.2844C65.1545 10.2844 66.0937 10.8695 66.3247 11.9626H67.2793Z" fill="#FBFBFB"/>
<path d="M68.3908 10.346H70.8697V17.3823H71.8243V10.346H74.3032V9.49914H68.3908V10.346Z" fill="#FBFBFB"/>
<path d="M76.1922 17.4901H76.7003C77.9012 17.4901 78.2554 16.8435 78.5787 16.1044L81.3039 9.49914H80.2877L78.3015 14.3953L76.1306 9.49914H75.099L77.8242 15.5347L77.7011 15.8273C77.5317 16.2122 77.2546 16.5971 76.6849 16.5971H76.1922V17.4901Z" fill="#FBFBFB"/>
<path d="M88.4375 9.49914H82.5559V17.3823H83.5105V10.346H87.4829V17.3823H88.4375V9.49914Z" fill="#FBFBFB"/>
<path d="M90.3631 17.3823H91.3177V13.8565H95.521V17.3823H96.4757V9.49914H95.521V13.0096H91.3177V9.49914H90.3631V17.3823Z" fill="#FBFBFB"/>
<path d="M105.038 13.4407C105.038 10.9464 103.576 9.39136 101.559 9.39136C99.5416 9.39136 98.0789 10.9464 98.0789 13.4407C98.0789 15.935 99.5416 17.4901 101.559 17.4901C103.576 17.4901 105.038 15.935 105.038 13.4407ZM104.114 13.4407C104.114 15.4885 102.99 16.5971 101.559 16.5971C100.127 16.5971 99.0027 15.4885 99.0027 13.4407C99.0027 11.393 100.127 10.2844 101.559 10.2844C102.99 10.2844 104.114 11.393 104.114 13.4407Z" fill="#FBFBFB"/>
<path d="M109.692 17.3823H112.54C114.403 17.3823 115.173 16.4739 115.173 15.2884C115.173 14.0412 114.311 13.3638 113.587 13.3176V13.2406C114.265 13.0558 114.865 12.6093 114.865 11.5931C114.865 10.4383 114.095 9.49914 112.448 9.49914H109.692V17.3823ZM110.647 16.5355V13.7949H112.587C113.618 13.7949 114.265 14.4877 114.265 15.2884C114.265 15.9812 113.788 16.5355 112.54 16.5355H110.647ZM110.647 12.9634V10.346H112.448C113.495 10.346 113.957 10.9003 113.957 11.5931C113.957 12.4245 113.279 12.9634 112.417 12.9634H110.647Z" fill="#FBFBFB"/>
<path d="M55.2976 28.8748H57.6024C57.1008 25.9738 54.6214 23.9671 51.4078 23.9671C47.5543 23.9671 44.7405 26.8681 44.7405 31.6232C44.7405 36.3346 47.4743 39.2648 51.5096 39.2648C55.1231 39.2648 57.7042 36.8945 57.7042 33.1355V31.4414H51.8513V33.2955H55.5303C55.4794 35.6948 53.8944 37.2144 51.5096 37.2144C48.8848 37.2144 46.9726 35.2295 46.9726 31.6087C46.9726 28.0024 48.8994 26.0174 51.4223 26.0174C53.4 26.0174 54.7378 27.1081 55.2976 28.8748Z" fill="#FBFBFB"/>
<path d="M64.1645 39.2866C67.3128 39.2866 69.3704 36.9817 69.3704 33.5281C69.3704 30.0527 67.3128 27.7479 64.1645 27.7479C61.0163 27.7479 58.9587 30.0527 58.9587 33.5281C58.9587 36.9817 61.0163 39.2866 64.1645 39.2866ZM64.1718 37.4616C62.1142 37.4616 61.1544 35.6657 61.1544 33.5209C61.1544 31.3833 62.1142 29.5656 64.1718 29.5656C66.2149 29.5656 67.1746 31.3833 67.1746 33.5209C67.1746 35.6657 66.2149 37.4616 64.1718 37.4616Z" fill="#FBFBFB"/>
<path d="M75.5798 39.2866C78.7281 39.2866 80.7857 36.9817 80.7857 33.5281C80.7857 30.0527 78.7281 27.7479 75.5798 27.7479C72.4316 27.7479 70.374 30.0527 70.374 33.5281C70.374 36.9817 72.4316 39.2866 75.5798 39.2866ZM75.5871 37.4616C73.5295 37.4616 72.5697 35.6657 72.5697 33.5209C72.5697 31.3833 73.5295 29.5656 75.5871 29.5656C77.6302 29.5656 78.5899 31.3833 78.5899 33.5209C78.5899 35.6657 77.6302 37.4616 75.5871 37.4616Z" fill="#FBFBFB"/>
<path d="M86.9733 43.46C89.8162 43.46 92.012 42.1585 92.012 39.3084V27.8933H89.8816V29.7037H89.7217C89.3363 29.013 88.5656 27.7479 86.4862 27.7479C83.7887 27.7479 81.8038 29.8782 81.8038 33.4336C81.8038 36.9963 83.8324 38.894 86.4716 38.894C88.522 38.894 89.3145 37.7379 89.7071 37.0254H89.8453V39.2211C89.8453 40.9443 88.6456 41.7077 86.9951 41.7077C85.1847 41.7077 84.4795 40.7989 84.0941 40.1809L82.2255 40.9516C82.8145 42.2967 84.305 43.46 86.9733 43.46ZM86.9515 37.0908C85.0102 37.0908 83.9996 35.6003 83.9996 33.4045C83.9996 31.2597 84.9884 29.5947 86.9515 29.5947C88.8492 29.5947 89.8671 31.1433 89.8671 33.4045C89.8671 35.7094 88.8274 37.0908 86.9515 37.0908Z" fill="#FBFBFB"/>
<path d="M96.1801 24.1707H94.0062V39.0612H96.1801V24.1707Z" fill="#FBFBFB"/>
<path d="M102.997 39.2866C105.432 39.2866 107.156 38.0869 107.65 36.2692L105.592 35.8984C105.2 36.9527 104.255 37.4907 103.019 37.4907C101.157 37.4907 99.9066 36.2838 99.8485 34.1316H107.788V33.3609C107.788 29.3256 105.374 27.7479 102.844 27.7479C99.7321 27.7479 97.6818 30.1181 97.6818 33.5499C97.6818 37.0181 99.703 39.2866 102.997 39.2866ZM99.8557 32.503C99.943 30.9179 101.092 29.5438 102.859 29.5438C104.545 29.5438 105.651 30.7943 105.658 32.503H99.8557Z" fill="#FBFBFB"/>
<path d="M113.951 39.0612H116.197V33.8262H119.251C122.705 33.8262 124.413 31.7395 124.413 28.9912C124.413 26.2501 122.719 24.1707 119.258 24.1707H113.951V39.0612ZM116.197 31.9213V26.0974H119.018C121.243 26.0974 122.152 27.3044 122.152 28.9912C122.152 30.678 121.243 31.9213 119.047 31.9213H116.197Z" fill="#FBFBFB"/>
<path d="M128.125 24.1707H125.951V39.0612H128.125V24.1707Z" fill="#FBFBFB"/>
<path d="M133.378 39.3084C135.225 39.3084 136.265 38.3705 136.679 37.5343H136.767V39.0612H138.89V31.645C138.89 28.395 136.33 27.7479 134.556 27.7479C132.535 27.7479 130.674 28.5622 129.947 30.598L131.99 31.0633C132.31 30.2708 133.124 29.5074 134.585 29.5074C135.989 29.5074 136.708 30.2418 136.708 31.5069V31.5578C136.708 32.3503 135.894 32.3357 133.887 32.5684C131.772 32.8156 129.605 33.3682 129.605 35.9057C129.605 38.1014 131.255 39.3084 133.378 39.3084ZM133.851 37.5634C132.622 37.5634 131.735 37.0108 131.735 35.9348C131.735 34.7714 132.768 34.357 134.026 34.1898C134.731 34.0953 136.403 33.9062 136.716 33.5936V35.0332C136.716 36.3565 135.661 37.5634 133.851 37.5634Z" fill="#FBFBFB"/>
<path d="M141.838 43.2201C143.634 43.2201 144.776 42.2821 145.415 40.5517L150.032 27.9151L147.684 27.8933L144.856 36.56H144.739L141.911 27.8933H139.584L143.67 39.2066L143.401 39.9482C142.849 41.3951 142.071 41.526 140.878 41.1988L140.355 42.9801C140.617 43.1037 141.184 43.2201 141.838 43.2201Z" fill="#FBFBFB"/>
<g clip-path="url(#clip0_2_568)">
<path d="M26.4927 24.6114L11.9773 38.5888C11.2975 38.1243 10.894 37.3516 10.9011 36.5283V12.6945C10.894 11.8713 11.2975 11.0986 11.9773 10.634L26.4927 24.6114Z" fill="#5BC8F3"/>
<path d="M31.5717 19.7289L26.4926 24.6111L11.9772 10.6337C12.0319 10.5913 12.0888 10.5519 12.1478 10.5156C12.9149 10.0506 13.8732 10.0356 14.6545 10.4762L31.5717 19.7289Z" fill="#74C168"/>
<path d="M37.7266 24.6109C37.7361 25.5403 37.231 26.3987 36.4142 26.8421L31.5713 29.4932L26.4922 24.6109L31.5713 19.7286L36.4142 22.3797C37.231 22.8231 37.7361 23.6815 37.7266 24.6109Z" fill="#FFDF00"/>
<path d="M31.5717 29.4931L14.6545 38.7457C13.8714 39.1795 12.9168 39.1645 12.1478 38.7063C12.0888 38.67 12.0319 38.6306 11.9772 38.5882L26.4927 24.6108L31.5717 29.4931Z" fill="#E9404A"/>
</g>
<defs>
<clipPath id="clip0_2_568">
<rect width="28.9051" height="28.9051" fill="white" transform="translate(9.86133 10.1559)"/>
</clipPath>
</defs>
</svg>
