<svg width="40" height="40" viewBox="0 0 40 40" fill="none" xmlns="http://www.w3.org/2000/svg">
<path d="M38.3889 26.6734L27.4788 19.9998L38.3885 13.3261C38.5762 13.2111 38.7107 13.0264 38.7622 12.8121C38.8137 12.5979 38.778 12.372 38.6634 12.1843L35.4575 6.94396C35.2188 6.55283 34.7068 6.42951 34.3157 6.66867L23.9013 13.0396V0.830418C23.9013 0.372027 23.5293 0 23.0709 0H16.9286C16.4702 0 16.0982 0.372027 16.0982 0.830418V13.0396L5.68341 6.66909C5.29145 6.42993 4.78073 6.55283 4.54157 6.94437L1.33571 12.1847C1.22111 12.3724 1.1854 12.5983 1.23689 12.8125C1.28837 13.0268 1.4229 13.2115 1.61058 13.3266L12.5207 19.9998L1.61058 26.6734C1.4229 26.788 1.28837 26.9732 1.23689 27.1871C1.1854 27.4017 1.22111 27.6276 1.33571 27.8153L4.54157 33.0552C4.78073 33.4463 5.29145 33.5701 5.68341 33.3309L16.0982 26.9599V39.1692C16.0982 39.6276 16.4702 39.9996 16.9286 39.9996H23.0709C23.5293 39.9996 23.9013 39.6276 23.9013 39.1692V26.9604L34.3161 33.3305C34.7072 33.5697 35.2192 33.4463 35.458 33.0556L38.6638 27.8153C38.7784 27.6276 38.8141 27.4017 38.7626 27.1875C38.7116 26.9728 38.5766 26.7885 38.3889 26.6734Z" fill="url(#paint0_radial_2_603)"/>
<defs>
<radialGradient id="paint0_radial_2_603" cx="0" cy="0" r="1" gradientUnits="userSpaceOnUse" gradientTransform="translate(19.9998 19.9998) rotate(89.9994) scale(21.5002 20.1952)">
<stop stop-color="#84CC9D"/>
<stop offset="0.9999" stop-color="#8866EC"/>
<stop offset="1" stop-color="#A585FF"/>
</radialGradient>
</defs>
</svg>
